<?xml version="1.0" encoding="UTF-8" standalone="no"?>
<svg
   xmlns:dc="http://purl.org/dc/elements/1.1/"
   xmlns:cc="http://creativecommons.org/ns#"
   xmlns:rdf="http://www.w3.org/1999/02/22-rdf-syntax-ns#"
   xmlns:svg="http://www.w3.org/2000/svg"
   xmlns="http://www.w3.org/2000/svg"
   xmlns:sodipodi="http://sodipodi.sourceforge.net/DTD/sodipodi-0.dtd"
   xmlns:inkscape="http://www.inkscape.org/namespaces/inkscape"
   version="1.0"
   width="181.000000pt"
   height="181.000000pt"
   viewBox="0 0 181.000000 181.000000"
   preserveAspectRatio="xMidYMid meet"
   id="svg8"
   sodipodi:docname="nemesis-logo.svg"
   inkscape:version="0.92.4 (5da689c313, 2019-01-14)">
  <defs
     id="defs12" />
  <sodipodi:namedview
     pagecolor="#ffffff"
     bordercolor="#666666"
     borderopacity="1"
     objecttolerance="10"
     gridtolerance="10"
     guidetolerance="10"
     inkscape:pageopacity="0"
     inkscape:pageshadow="2"
     inkscape:window-width="1920"
     inkscape:window-height="1027"
     id="namedview10"
     showgrid="false"
     inkscape:zoom="2.7659204"
     inkscape:cx="111.23447"
     inkscape:cy="125.20178"
     inkscape:window-x="-8"
     inkscape:window-y="-8"
     inkscape:window-maximized="1"
     inkscape:current-layer="svg8" />
  <metadata
     id="metadata2">
Created by potrace 1.15, written by Peter Selinger 2001-2017
<rdf:RDF>
  <cc:Work
     rdf:about="">
    <dc:format>image/svg+xml</dc:format>
    <dc:type
       rdf:resource="http://purl.org/dc/dcmitype/StillImage" />
    <dc:title></dc:title>
  </cc:Work>
</rdf:RDF>
</metadata>
  <g
     transform="translate(0.000000,181.000000) scale(0.100000,-0.100000)"
     fill="#000000"
     stroke="none"
     id="g6"
     style="opacity:1;fill:#ff0000">
    <path
       d="M831 1638 c8 -7 112 -86 231 -175 l215 -162 12 -183 c7 -101 16 -228 21 -283 4 -55 7 -101 6 -102 -1 -1 -166 98 -695 420 -124 75 -226 136 -227 134 -4 -5 11 -816 16 -819 6 -6 556 -310 590 -328 22 -11 23 -11 10 3 -8 8 -110 87 -226 175 l-211 161 -6 287 c-4 158 -5 290 -2 292 2 2 16 -5 32 -15 15 -11 156 -99 313 -195 157 -96 356 -218 442 -271 87 -54 162 -97 167 -97 9 0 10 -3 -19 275 -17 171 -25 259 -48 504 l-7 74 -315 159 c-173 88 -308 154 -299 146z"
       id="path4"
       style="fill:#ff0000" />
  </g>
  <path
     style="opacity:0;fill:#ff0000;fill-opacity:1;stroke:#ff0000;stroke-width:0.13087867;stroke-linecap:square;stroke-linejoin:miter;stroke-miterlimit:4;stroke-dasharray:none;stroke-opacity:1"
     d="m 133.44182,222.49075 c -3.90346,-1.97558 -68.249439,-37.60978 -75.374325,-41.74159 -2.873261,-1.66624 -3.080641,-1.86764 -3.304265,-3.20902 -0.692818,-4.15581 -2.62347,-107.54417 -2.008256,-107.54417 0.652755,0 15.664344,9.008122 66.586656,39.95719 23.72827,14.42133 51.28783,31.05078 54.19964,32.70409 l 2.1374,1.21359 -0.24516,-4.30815 c -0.13484,-2.36948 -0.72673,-10.57189 -1.31531,-18.22757 -1.10427,-14.36354 -3.61819,-50.862499 -3.61819,-52.531719 0,-0.82669 -3.58638,-3.644129 -29.12064,-22.876972 -16.01635,-12.063795 -29.01994,-22.034859 -28.89688,-22.157921 0.12306,-0.123062 18.17667,8.790369 40.11913,19.807626 l 39.89538,20.031376 0.2168,2.019213 c 0.11924,1.11057 1.35951,14.221302 2.75615,29.134963 1.39664,14.913664 3.59626,37.609544 4.88804,50.435294 1.29179,12.82574 2.4483,25.2312 2.57001,27.56767 0.20577,3.95013 0.17508,4.24814 -0.43761,4.24814 -1.26397,0 -10.59336,-5.61257 -73.16305,-44.0149 -26.70365,-16.38945 -37.556269,-23.10784 -45.393046,-28.10091 -6.207223,-3.95482 -8.245562,-5.047014 -8.655022,-4.63755 -0.392824,0.39282 -0.265986,17.71826 0.350161,47.82989 0.589691,28.81876 0.603081,29.11176 1.365127,29.87179 0.423276,0.42215 10.449916,8.14045 22.28142,17.15177 18.85629,14.36166 31.33583,23.9719 34.88893,26.86725 1.43536,1.16964 1.07786,1.4221 -0.72309,0.51062 z"
     id="path14"
     inkscape:connector-curvature="0"
     transform="scale(0.75000002)" />
  <path
     style="opacity:0;fill:#ff0000;fill-opacity:1;stroke:#ff0000;stroke-width:0.13087867;stroke-linecap:square;stroke-linejoin:miter;stroke-miterlimit:4;stroke-dasharray:none;stroke-opacity:1"
     d="m 133.44182,222.49075 c -3.90346,-1.97558 -68.249439,-37.60978 -75.374325,-41.74159 -2.873261,-1.66624 -3.080641,-1.86764 -3.304265,-3.20902 -0.692818,-4.15581 -2.62347,-107.54417 -2.008256,-107.54417 0.652755,0 15.664344,9.008122 66.586656,39.95719 23.72827,14.42133 51.28783,31.05078 54.19964,32.70409 l 2.1374,1.21359 -0.24516,-4.30815 c -0.13484,-2.36948 -0.72673,-10.57189 -1.31531,-18.22757 -1.10427,-14.36354 -3.61819,-50.862499 -3.61819,-52.531719 0,-0.82669 -3.58638,-3.644129 -29.12064,-22.876972 -16.01635,-12.063795 -29.01994,-22.034859 -28.89688,-22.157921 0.12306,-0.123062 18.17667,8.790369 40.11913,19.807626 l 39.89538,20.031376 0.2168,2.019213 c 0.11924,1.11057 1.35951,14.221302 2.75615,29.134963 1.39664,14.913664 3.59626,37.609544 4.88804,50.435294 1.29179,12.82574 2.4483,25.2312 2.57001,27.56767 0.20577,3.95013 0.17508,4.24814 -0.43761,4.24814 -1.26397,0 -10.59336,-5.61257 -73.16305,-44.0149 -26.70365,-16.38945 -37.556269,-23.10784 -45.393046,-28.10091 -6.207223,-3.95482 -8.245562,-5.047014 -8.655022,-4.63755 -0.392824,0.39282 -0.265986,17.71826 0.350161,47.82989 0.589691,28.81876 0.603081,29.11176 1.365127,29.87179 0.423276,0.42215 10.449916,8.14045 22.28142,17.15177 18.85629,14.36166 31.33583,23.9719 34.88893,26.86725 1.43536,1.16964 1.07786,1.4221 -0.72309,0.51062 z"
     id="path16"
     inkscape:connector-curvature="0"
     transform="scale(0.75000002)" />
  <path
     style="opacity:0;fill:#ff0000;fill-opacity:1;stroke:#ff0000;stroke-width:0.13087867;stroke-linecap:square;stroke-linejoin:miter;stroke-miterlimit:4;stroke-dasharray:none;stroke-opacity:1"
     d="m 133.44182,222.49075 c -3.90346,-1.97558 -68.249439,-37.60978 -75.374325,-41.74159 -2.873261,-1.66624 -3.080641,-1.86764 -3.304265,-3.20902 -0.692818,-4.15581 -2.62347,-107.54417 -2.008256,-107.54417 0.652755,0 15.664344,9.008122 66.586656,39.95719 23.72827,14.42133 51.28783,31.05078 54.19964,32.70409 l 2.1374,1.21359 -0.24516,-4.30815 c -0.13484,-2.36948 -0.72673,-10.57189 -1.31531,-18.22757 -1.10427,-14.36354 -3.61819,-50.862499 -3.61819,-52.531719 0,-0.82669 -3.58638,-3.644129 -29.12064,-22.876972 -16.01635,-12.063795 -29.01994,-22.034859 -28.89688,-22.157921 0.12306,-0.123062 18.17667,8.790369 40.11913,19.807626 l 39.89538,20.031376 0.2168,2.019213 c 0.11924,1.11057 1.35951,14.221302 2.75615,29.134963 1.39664,14.913664 3.59626,37.609544 4.88804,50.435294 1.29179,12.82574 2.4483,25.2312 2.57001,27.56767 0.20577,3.95013 0.17508,4.24814 -0.43761,4.24814 -1.26397,0 -10.59336,-5.61257 -73.16305,-44.0149 -26.70365,-16.38945 -37.556269,-23.10784 -45.393046,-28.10091 -6.207223,-3.95482 -8.245562,-5.047014 -8.655022,-4.63755 -0.392824,0.39282 -0.265986,17.71826 0.350161,47.82989 0.589691,28.81876 0.603081,29.11176 1.365127,29.87179 0.423276,0.42215 10.449916,8.14045 22.28142,17.15177 18.85629,14.36166 31.33583,23.9719 34.88893,26.86725 1.43536,1.16964 1.07786,1.4221 -0.72309,0.51062 z"
     id="path18"
     inkscape:connector-curvature="0"
     transform="scale(0.75000002)" />
  <path
     style="opacity:0;fill:#ff0000;fill-opacity:1;stroke:#ff0000;stroke-width:0.13087867;stroke-linecap:square;stroke-linejoin:miter;stroke-miterlimit:4;stroke-dasharray:none;stroke-opacity:1"
     d="m 133.44182,222.49075 c -3.90346,-1.97558 -68.249439,-37.60978 -75.374325,-41.74159 -2.873261,-1.66624 -3.080641,-1.86764 -3.304265,-3.20902 -0.692818,-4.15581 -2.62347,-107.54417 -2.008256,-107.54417 0.652755,0 15.664344,9.008122 66.586656,39.95719 23.72827,14.42133 51.28783,31.05078 54.19964,32.70409 l 2.1374,1.21359 -0.24516,-4.30815 c -0.13484,-2.36948 -0.72673,-10.57189 -1.31531,-18.22757 -1.10427,-14.36354 -3.61819,-50.862499 -3.61819,-52.531719 0,-0.82669 -3.58638,-3.644129 -29.12064,-22.876972 -16.01635,-12.063795 -29.01994,-22.034859 -28.89688,-22.157921 0.12306,-0.123062 18.17667,8.790369 40.11913,19.807626 l 39.89538,20.031376 0.2168,2.019213 c 0.11924,1.11057 1.35951,14.221302 2.75615,29.134963 1.39664,14.913664 3.59626,37.609544 4.88804,50.435294 1.29179,12.82574 2.4483,25.2312 2.57001,27.56767 0.20577,3.95013 0.17508,4.24814 -0.43761,4.24814 -1.26397,0 -10.59336,-5.61257 -73.16305,-44.0149 -26.70365,-16.38945 -37.556269,-23.10784 -45.393046,-28.10091 -6.207223,-3.95482 -8.245562,-5.047014 -8.655022,-4.63755 -0.392824,0.39282 -0.265986,17.71826 0.350161,47.82989 0.589691,28.81876 0.603081,29.11176 1.365127,29.87179 0.423276,0.42215 10.449916,8.14045 22.28142,17.15177 18.85629,14.36166 31.33583,23.9719 34.88893,26.86725 1.43536,1.16964 1.07786,1.4221 -0.72309,0.51062 z"
     id="path20"
     inkscape:connector-curvature="0"
     transform="scale(0.75000002)" />
  <path
     style="opacity:0;fill:#ff0000;fill-opacity:1;stroke:#ff0000;stroke-width:0.13087867;stroke-linecap:square;stroke-linejoin:miter;stroke-miterlimit:4;stroke-dasharray:none;stroke-opacity:1"
     d="m 133.44182,222.49075 c -3.90346,-1.97558 -68.249439,-37.60978 -75.374325,-41.74159 -2.873261,-1.66624 -3.080641,-1.86764 -3.304265,-3.20902 -0.692818,-4.15581 -2.62347,-107.54417 -2.008256,-107.54417 0.652755,0 15.664344,9.008122 66.586656,39.95719 23.72827,14.42133 51.28783,31.05078 54.19964,32.70409 l 2.1374,1.21359 -0.24516,-4.30815 c -0.13484,-2.36948 -0.72673,-10.57189 -1.31531,-18.22757 -1.10427,-14.36354 -3.61819,-50.862499 -3.61819,-52.531719 0,-0.82669 -3.58638,-3.644129 -29.12064,-22.876972 -16.01635,-12.063795 -29.01994,-22.034859 -28.89688,-22.157921 0.12306,-0.123062 18.17667,8.790369 40.11913,19.807626 l 39.89538,20.031376 0.2168,2.019213 c 0.11924,1.11057 1.35951,14.221302 2.75615,29.134963 1.39664,14.913664 3.59626,37.609544 4.88804,50.435294 1.29179,12.82574 2.4483,25.2312 2.57001,27.56767 0.20577,3.95013 0.17508,4.24814 -0.43761,4.24814 -1.26397,0 -10.59336,-5.61257 -73.16305,-44.0149 -26.70365,-16.38945 -37.556269,-23.10784 -45.393046,-28.10091 -6.207223,-3.95482 -8.245562,-5.047014 -8.655022,-4.63755 -0.392824,0.39282 -0.265986,17.71826 0.350161,47.82989 0.589691,28.81876 0.603081,29.11176 1.365127,29.87179 0.423276,0.42215 10.449916,8.14045 22.28142,17.15177 18.85629,14.36166 31.33583,23.9719 34.88893,26.86725 1.43536,1.16964 1.07786,1.4221 -0.72309,0.51062 z"
     id="path22"
     inkscape:connector-curvature="0"
     transform="scale(0.75000002)" />
  <path
     style="opacity:0;fill:#ff0000;fill-opacity:1;stroke:#ff0000;stroke-width:0.13087867;stroke-linecap:square;stroke-linejoin:miter;stroke-miterlimit:4;stroke-dasharray:none;stroke-opacity:1"
     d="m 133.44182,222.49075 c -3.90346,-1.97558 -68.249439,-37.60978 -75.374325,-41.74159 -2.873261,-1.66624 -3.080641,-1.86764 -3.304265,-3.20902 -0.692818,-4.15581 -2.62347,-107.54417 -2.008256,-107.54417 0.652755,0 15.664344,9.008122 66.586656,39.95719 23.72827,14.42133 51.28783,31.05078 54.19964,32.70409 l 2.1374,1.21359 -0.24516,-4.30815 c -0.13484,-2.36948 -0.72673,-10.57189 -1.31531,-18.22757 -1.10427,-14.36354 -3.61819,-50.862499 -3.61819,-52.531719 0,-0.82669 -3.58638,-3.644129 -29.12064,-22.876972 -16.01635,-12.063795 -29.01994,-22.034859 -28.89688,-22.157921 0.12306,-0.123062 18.17667,8.790369 40.11913,19.807626 l 39.89538,20.031376 0.2168,2.019213 c 0.11924,1.11057 1.35951,14.221302 2.75615,29.134963 1.39664,14.913664 3.59626,37.609544 4.88804,50.435294 1.29179,12.82574 2.4483,25.2312 2.57001,27.56767 0.20577,3.95013 0.17508,4.24814 -0.43761,4.24814 -1.26397,0 -10.59336,-5.61257 -73.16305,-44.0149 -26.70365,-16.38945 -37.556269,-23.10784 -45.393046,-28.10091 -6.207223,-3.95482 -8.245562,-5.047014 -8.655022,-4.63755 -0.392824,0.39282 -0.265986,17.71826 0.350161,47.82989 0.589691,28.81876 0.603081,29.11176 1.365127,29.87179 0.423276,0.42215 10.449916,8.14045 22.28142,17.15177 18.85629,14.36166 31.33583,23.9719 34.88893,26.86725 1.43536,1.16964 1.07786,1.4221 -0.72309,0.51062 z"
     id="path24"
     inkscape:connector-curvature="0"
     transform="scale(0.75000002)" />
</svg>
