<?xml version="1.0" encoding="UTF-8" standalone="no"?>
<svg
   xmlns:dc="http://purl.org/dc/elements/1.1/"
   xmlns:cc="http://creativecommons.org/ns#"
   xmlns:rdf="http://www.w3.org/1999/02/22-rdf-syntax-ns#"
   xmlns:svg="http://www.w3.org/2000/svg"
   xmlns="http://www.w3.org/2000/svg"
   xmlns:sodipodi="http://sodipodi.sourceforge.net/DTD/sodipodi-0.dtd"
   xmlns:inkscape="http://www.inkscape.org/namespaces/inkscape"
   version="1.0"
   width="1223.6093"
   height="487.53888"
   viewBox="0 0 917.70692 365.65416"
   preserveAspectRatio="xMidYMid meet"
   id="svg34"
   sodipodi:docname="nemesis-ban.svg"
   inkscape:version="0.92.4 (5da689c313, 2019-01-14)">
  <defs
     id="defs38" />
  <sodipodi:namedview
     pagecolor="#ffffff"
     bordercolor="#666666"
     borderopacity="1"
     objecttolerance="10"
     gridtolerance="10"
     guidetolerance="10"
     inkscape:pageopacity="0"
     inkscape:pageshadow="2"
     inkscape:window-width="1920"
     inkscape:window-height="1027"
     id="namedview36"
     showgrid="false"
     inkscape:zoom="0.79541881"
     inkscape:cx="356.77186"
     inkscape:cy="47.652212"
     inkscape:window-x="-8"
     inkscape:window-y="-8"
     inkscape:window-maximized="1"
     inkscape:current-layer="svg34"
     fit-margin-top="100"
     fit-margin-left="100"
     fit-margin-right="100"
     fit-margin-bottom="100"
     units="px" />
  <metadata
     id="metadata2">
Created by potrace 1.15, written by Peter Selinger 2001-2017
<rdf:RDF>
  <cc:Work
     rdf:about="">
    <dc:format>image/svg+xml</dc:format>
    <dc:type
       rdf:resource="http://purl.org/dc/dcmitype/StillImage" />
    <dc:title></dc:title>
  </cc:Work>
</rdf:RDF>
</metadata>
  <g
     transform="matrix(0.14387312,0,0,-0.14387312,-272.02197,349.01294)"
     id="g32"
     style="fill:#000000;stroke:none">
    <path
       d="m 2665,1900 c 5,-8 60,-84 123,-168 l 114,-153 9,-202 c 4,-111 10,-237 12,-280 2,-43 1,-76 -3,-75 -3,2 -118,124 -254,271 -137,147 -250,266 -253,264 -2,-3 -1,-185 3,-405 l 7,-400 175,-174 c 97,-95 169,-163 161,-151 -8,13 -67,94 -132,182 l -117,159 2,282 3,283 94,-104 c 52,-57 137,-151 190,-209 53,-57 125,-136 160,-175 35,-38 69,-74 74,-80 10,-11 8,42 -18,510 -8,143 -15,276 -15,295 0,33 -10,45 -132,156 -178,161 -214,192 -203,174 z"
       id="path18"
       style="fill:#ff0000;fill-opacity:1"
       inkscape:connector-curvature="0" />
    <path
       d="m 7335,1745 c -93,-85 -171,-162 -172,-172 -3,-17 -27,-458 -40,-718 -3,-77 -2,-116 4,-110 5,6 39,42 74,80 35,39 107,118 160,175 53,58 138,152 190,209 l 94,104 3,-283 2,-282 -117,-159 c -65,-88 -124,-169 -132,-182 -8,-12 64,56 161,151 l 175,174 7,400 c 4,220 5,402 3,405 -3,2 -116,-117 -253,-264 -136,-147 -251,-269 -254,-271 -4,-1 -5,32 -3,75 2,43 8,169 12,280 l 9,202 102,138 c 57,76 114,153 128,171 13,17 23,32 21,32 -2,0 -80,-70 -174,-155 z"
       id="path20"
       style="fill:#ff0000;fill-opacity:1"
       inkscape:connector-curvature="0" />
    <path
       d="m 4075,1627 c -3,-6 -4,-172 -3,-367 3,-337 4,-355 21,-355 14,0 25,18 44,75 23,66 27,98 32,256 l 6,181 80,-88 c 44,-49 87,-89 97,-89 9,0 55,41 102,91 l 86,92 v -165 c 0,-147 3,-173 26,-253 30,-103 40,-121 60,-104 11,9 14,79 14,371 0,323 -2,359 -16,365 -18,6 -40,-15 -195,-185 l -75,-83 -123,136 c -118,129 -146,151 -156,122 z"
       id="path22"
       style="fill:#ff0000;fill-opacity:1"
       inkscape:connector-curvature="0" />
    <path
       d="m 6045,1621 c -100,-46 -143,-164 -96,-266 25,-55 71,-92 139,-110 96,-26 137,-50 155,-88 10,-19 17,-45 17,-57 0,-37 -32,-91 -64,-111 -42,-25 -83,-24 -147,6 -69,31 -122,37 -127,13 -5,-26 73,-105 124,-124 100,-38 212,0 279,95 27,38 30,51 30,114 0,61 -4,79 -28,120 -32,54 -97,101 -154,112 -136,25 -184,106 -108,182 39,39 24,37 172,17 44,-6 54,-4 59,10 9,22 -30,63 -81,87 -51,24 -119,24 -170,0 z"
       id="path24"
       style="fill:#ff0000;fill-opacity:1"
       inkscape:connector-curvature="0" />
    <path
       d="m 3287,1624 c -4,-4 -7,-56 -7,-116 v -108 h -25 c -19,0 -29,-9 -42,-34 -22,-46 -12,-66 31,-66 h 36 l 2,-207 3,-208 171,-3 c 136,-2 174,0 183,11 14,18 5,25 -77,60 -45,19 -81,27 -123,27 h -59 v 160 c 0,159 0,160 23,160 35,0 129,58 125,78 -3,14 -17,18 -76,20 l -72,3 v 64 65 l 58,1 c 74,0 197,47 197,75 0,18 -12,19 -171,22 -93,1 -173,-1 -177,-4 z"
       id="path26"
       style="fill:#ff0000;fill-opacity:1"
       inkscape:connector-curvature="0" />
    <path
       d="m 5137,1624 c -4,-4 -7,-56 -7,-116 v -108 h -25 c -19,0 -29,-9 -42,-34 -22,-46 -12,-66 31,-66 h 36 l 2,-207 3,-208 169,-3 c 165,-2 206,4 190,30 -4,6 -34,23 -68,39 -48,23 -75,29 -128,29 h -68 v 160 160 h 25 c 37,0 137,59 133,79 -3,13 -19,17 -81,19 l -77,3 v 64 65 h 63 c 78,1 192,46 192,76 0,18 -10,19 -171,22 -93,1 -173,-1 -177,-4 z"
       id="path28"
       style="fill:#ff0000;fill-opacity:1"
       inkscape:connector-curvature="0" />
    <path
       d="m 6790,1546 -30,-66 v -279 c 0,-223 3,-281 14,-290 17,-15 28,-2 61,73 l 25,57 -2,282 c -3,261 -4,282 -21,285 -13,3 -25,-12 -47,-62 z"
       id="path30"
       style="fill:#ff0000;fill-opacity:1"
       inkscape:connector-curvature="0" />
  </g>
</svg>
