<?xml version="1.0" encoding="UTF-8" standalone="no"?>
<svg
   xmlns:dc="http://purl.org/dc/elements/1.1/"
   xmlns:cc="http://creativecommons.org/ns#"
   xmlns:rdf="http://www.w3.org/1999/02/22-rdf-syntax-ns#"
   xmlns:svg="http://www.w3.org/2000/svg"
   xmlns="http://www.w3.org/2000/svg"
   xmlns:sodipodi="http://sodipodi.sourceforge.net/DTD/sodipodi-0.dtd"
   xmlns:inkscape="http://www.inkscape.org/namespaces/inkscape"
   id="Layer_1"
   data-name="Layer 1"
   viewBox="0 0 389 278"
   version="1.1"
   sodipodi:docname="Combo_Purple_RGB.svg"
   width="389"
   height="278"
   inkscape:version="0.92.4 (5da689c313, 2019-01-14)">
  <metadata
     id="metadata13">
    <rdf:RDF>
      <cc:Work
         rdf:about="">
        <dc:format>image/svg+xml</dc:format>
        <dc:type
           rdf:resource="http://purl.org/dc/dcmitype/StillImage" />
        <dc:title>Combo</dc:title>
      </cc:Work>
    </rdf:RDF>
  </metadata>
  <sodipodi:namedview
     pagecolor="#ffffff"
     bordercolor="#666666"
     borderopacity="1"
     objecttolerance="10"
     gridtolerance="10"
     guidetolerance="10"
     inkscape:pageopacity="0"
     inkscape:pageshadow="2"
     inkscape:window-width="1920"
     inkscape:window-height="1027"
     id="namedview11"
     showgrid="false"
     fit-margin-top="50"
     fit-margin-left="50"
     fit-margin-right="50"
     fit-margin-bottom="50"
     inkscape:zoom="1.2352941"
     inkscape:cx="194.5"
     inkscape:cy="139"
     inkscape:window-x="-8"
     inkscape:window-y="-8"
     inkscape:window-maximized="1"
     inkscape:current-layer="Layer_1" />
  <defs
     id="defs4">
    <style
       id="style2">.cls-1{fill:#6441a4;fill-rule:evenodd;}</style>
  </defs>
  <title
     id="title6">Combo</title>
  <path
     class="cls-1"
     d="m 230,50 -4,13 0.09,60 H 241 v 8 h 8 l 8,-8 h 14 L 297,97 V 50 Z m 60,43 -11,11 h -18 l -10,10 V 104 H 236 V 57 h 54 z M 272,70 h 7 v 20 h -7 z m -18,0 h 7 v 20 h -7 z m 85,93 v 47 l -26,18 h -16 v -8 l -12,8 h -14 v -8 l -9,8 h -26 l -8,-8 -2,8 -22.95,-0.06 -9.05,-7.94 -1,8 -26,-0.06 -1,-7.94 -7,7.94 -40,0.06 -8,-4 v 4 H 89 L 65,213 50,198 v -66 h 31 l 15,15 h 68 v -15 h 56 v 15 h 14 v 8 l 8,-8 h 17 l 15,-15 h 32 v 15 h 17 z M 89,154 H 75 V 139 H 57 v 56 l 11,12 H 89 V 188 H 75 v -16 h 14 z m 75,0 h -18 v 34 h -7 v -34 h -17 v 34 h -7 V 154 H 96 v 53 h 56 l 12,-12 z m 24,0 h -17 v 53 h 17 z m 0,-15 h -17 v 8 h 17 z m 39,15 h -14 v -15 h -18 v 56 l 11,12 h 21 v -19 h -14 v -16 h 14 z m 46,0 h -28 l -11,11 v 30 l 12,12 h 27 v -19 h -20 v -16 h 20 z m 59,11 -12,-11 h -21 v -15 h -19 v 68 h 19 v -35 h 14 v 35 h 19 z"
     id="path8"
     inkscape:connector-curvature="0"
     style="fill:#6441a4;fill-rule:evenodd" />
</svg>
